<?xml version="1.0" encoding="utf-8"?>
<!-- Generator: Adobe Illustrator 26.5.0, SVG Export Plug-In . SVG Version: 6.00 Build 0)  -->
<svg version="1.1" id="sticker_beauty_svg_2"
	 xmlns="http://www.w3.org/2000/svg" xmlns:xlink="http://www.w3.org/1999/xlink" x="0px" y="0px" width="717.62px"
	 height="255.03px" viewBox="0 0 717.62 255.03" style="enable-background:new 0 0 717.62 255.03;" xml:space="preserve">
<style type="text/css">
	.st0{fill:#9C013A;}
	.st1{fill:#FFFFFF;}
	.st2{fill:#FB4A92;}
	.st3{fill:#F4C167;}
	.st4{fill:none;}
	.st5{font-family:'Montserrat-Bold';}
	.st6{font-size:51.0057px;}
</style>
<g id="sticker_group">
	<path class="st0" d="M657.81,255.03H63.34c-27.5,0-50-22.5-50-50v-96.18c0-27.5,22.5-50,50-50h594.46c27.5,0,50,22.5,50,50v96.18
		C707.81,232.53,685.31,255.03,657.81,255.03z"/>
	<path class="st1" d="M667.62,241.3H73.15c-27.5,0-50-22.5-50-50V95.12c0-27.5,22.5-50,50-50h594.46c27.5,0,50,22.5,50,50v96.18
		C717.62,218.8,695.12,241.3,667.62,241.3z"/>
	<path class="st2" d="M664.77,237.37H76c-24.85,0-45-20.15-45-45V96.01c0-24.85,20.15-45,45-45h588.77c24.85,0,45,20.15,45,45v96.37
		C709.77,217.23,689.62,237.37,664.77,237.37z"/>
	<polygon class="st1" points="46.82,0 64.65,24.7 93.65,34.02 75.67,58.61 75.77,89.08 46.82,79.56 17.88,89.08 17.99,58.61 
		0,34.02 29,24.7 	"/>
	<polygon class="st3" points="46.82,7.35 61.71,27.97 85.93,35.75 70.91,56.29 70.99,81.73 46.82,73.79 22.66,81.73 22.74,56.29 
		7.72,35.75 31.94,27.97 	"/>
</g>
<path id="text_safe_area" class="st4" d="M667.81,241.3H71c-22.09,0-40-17.91-40-40V91.01c0-22.09,17.91-40,40-40h596.81
	c22.09,0,40,17.91,40,40V201.3C707.81,223.39,689.9,241.3,667.81,241.3z"/>
<g id="text_layer">
	<rect x="62.39" y="72.24" class="st4" width="614.03" height="143.58"/>
	<text transform="matrix(1 0 0 1 73.9297 162.9472)" class="st1 st5 st6">GIÀY XINH CHO NÀNG</text>
</g>
</svg>
