<?xml version="1.0" encoding="utf-8"?>
<!-- Generator: Adobe Illustrator 26.5.0, SVG Export Plug-In . SVG Version: 6.00 Build 0)  -->
<svg version="1.1" id="sticker_x5F_beauty_x5F_01" xmlns="http://www.w3.org/2000/svg" xmlns:xlink="http://www.w3.org/1999/xlink"
	 x="0px" y="0px" width="1080px" height="459.38px" viewBox="0 0 1080 459.38" style="enable-background:new 0 0 1080 459.38;"
	 xml:space="preserve">
<style type="text/css">
	.st0{fill:#29296D;}
	.st1{fill:#F5B332;}
	.st2{fill:#F86EB5;}
	.st3{fill:#6570ED;}
	.st4{fill:#FFFFFF;}
	.st5{font-family:'Montserrat-Bold';}
	.st6{font-size:41.3137px;}
</style>
<g id="sticker_x5F_group">
	<path class="st0" d="M796.02,172.94h-1.61v2.9c12.04,1.01,21.5,11.09,21.5,23.4v98.52c0,12.97-10.52,23.49-23.49,23.49H338.25
		c-12.94,0-23.44-10.47-23.48-23.4h-1.8v5.05c0,12.97,10.52,23.49,23.49,23.49h459.57c12.97,0,23.49-10.52,23.49-23.49V196.43
		C819.51,183.46,809,172.94,796.02,172.94z"/>
	<path class="st1" d="M770.93,297.85H314.77c0.05,12.93,10.54,23.4,23.48,23.4h454.18c12.97,0,23.49-10.52,23.49-23.49v-98.52
		c0-12.3-9.46-22.39-21.5-23.4v98.52C794.41,287.33,783.9,297.85,770.93,297.85z"/>
	<path class="st0" d="M257.49,242.58V139.96c0-12.97,10.52-23.49,23.49-23.49h453.64c12.97,0,23.49,10.52,23.49,23.49v4.44h3.92
		v-9.83c0-12.97-10.52-23.49-23.49-23.49H275.38c-12.97,0-23.49,10.52-23.49,23.49v109.93c0,12.97,10.52,23.49,23.49,23.49h5.51
		v-1.93C267.96,266.02,257.49,255.52,257.49,242.58z"/>
	<path class="st2" d="M304.38,144.4h453.73v-4.44c0-12.97-10.52-23.49-23.49-23.49H280.98c-12.97,0-23.49,10.52-23.49,23.49v102.61
		c0,12.94,10.47,23.44,23.4,23.48v-98.17C280.89,154.92,291.41,144.4,304.38,144.4z"/>
	<path class="st0" d="M794.41,172.94v-5.05c0-12.97-10.52-23.49-23.49-23.49h-8.9v28.54H794.41z"/>
	<path class="st0" d="M280.89,267.99v6.37c0,12.97,10.52,23.49,23.49,23.49h8.59v-29.85H280.89z"/>
	<path class="st0" d="M762.03,175.75h30.4c0.67,0,1.33,0.03,1.98,0.09v-2.9h-32.38V175.75z"/>
	<path class="st0" d="M314.76,297.76v-29.77h-1.8v29.85h1.8C314.77,297.82,314.76,297.79,314.76,297.76z"/>
	<path class="st0" d="M762.03,175.75v68.75c0,12.97-10.52,23.49-23.49,23.49H314.76v29.77c0,0.03,0,0.06,0,0.08h456.16
		c12.97,0,23.49-10.52,23.49-23.49v-98.52c-0.65-0.05-1.31-0.09-1.98-0.09H762.03z"/>
	<rect x="758.11" y="144.4" class="st0" width="3.92" height="28.54"/>
	<path class="st0" d="M312.97,266.06h-31.99c-0.03,0-0.06,0-0.09,0v1.93h32.08V266.06z"/>
	<rect x="758.11" y="172.94" class="st0" width="3.92" height="2.81"/>
	<rect x="312.97" y="266.06" class="st0" width="1.8" height="1.93"/>
	<path class="st0" d="M762.03,244.51v-68.75h-3.92v66.83c0,12.97-10.52,23.49-23.49,23.49H314.76v1.93h423.78
		C751.52,267.99,762.03,257.48,762.03,244.51z"/>
	<path class="st0" d="M336.46,172.94h421.65V144.4H304.38c-12.97,0-23.49,10.52-23.49,23.49v98.17c0.03,0,0.06,0,0.09,0h31.99
		v-69.63C312.97,183.46,323.48,172.94,336.46,172.94z"/>
	<path class="st0" d="M314.76,199.24c0-12.97,10.52-23.49,23.49-23.49h419.86v-2.81H336.46c-12.97,0-23.49,10.52-23.49,23.49v69.63
		h1.8V199.24z"/>
	<path class="st0" d="M314.76,199.24v66.83h419.86c12.97,0,23.49-10.52,23.49-23.49v-66.83H338.25
		C325.28,175.75,314.76,186.27,314.76,199.24z"/>
	<path class="st3" d="M578.62,76.18c1.47,0.55,2.54,1.88,4.02,3.84c2.08,2.75,4.66,6.18,9.83,6.18c5.17,0,7.76-3.43,9.84-6.18
		c1.99-2.64,3.24-4.13,5.72-4.13c2.48,0,3.73,1.49,5.72,4.13c2.08,2.75,4.66,6.18,9.84,6.18c5.17,0,7.76-3.43,9.84-6.18
		c1.99-2.64,3.24-4.13,5.72-4.13c2.48,0,3.73,1.49,5.72,4.13c1.44,1.9,3.13,4.11,5.74,5.3c1.67,0.75,3.55-0.57,3.55-2.39
		c0-0.97-0.53-1.89-1.42-2.3c-1.34-0.6-2.37-1.88-3.75-3.71c-2.08-2.75-4.66-6.18-9.84-6.18c-5.18,0-7.76,3.43-9.84,6.18
		c-1.99,2.64-3.24,4.13-5.72,4.13c-2.48,0-3.73-1.49-5.72-4.13c-2.08-2.75-4.66-6.18-9.84-6.18c-5.17,0-7.76,3.43-9.84,6.18
		c-1.99,2.64-3.24,4.13-5.72,4.13c-2.48,0-3.73-1.49-5.72-4.13c-1.55-2.06-3.38-4.49-6.37-5.59c-1.68-0.62-3.47,0.64-3.47,2.43v0.01
		C576.92,74.85,577.6,75.8,578.62,76.18z"/>
	<path class="st0" d="M831.1,141.17c-5.47,7.66-14.42,12.66-24.55,12.66c-16.65,0-30.14-13.5-30.14-30.14
		c0-10.13,5-19.08,12.66-24.55c0.52-1.34,1.13-2.63,1.81-3.88c-10.01,5.53-16.79,16.19-16.79,28.43c0,17.93,14.53,32.46,32.46,32.46
		c12.24,0,22.9-6.78,28.43-16.79C833.73,140.05,832.43,140.65,831.1,141.17z"/>
	<path class="st4" d="M786.85,110.93c0-4.16,0.79-8.13,2.22-11.79c-7.66,5.47-12.66,14.42-12.66,24.55
		c0,16.65,13.5,30.14,30.14,30.14c10.13,0,19.08-5,24.55-12.66c-3.66,1.43-7.63,2.22-11.79,2.22
		C801.38,143.39,786.85,128.86,786.85,110.93z"/>
	<path class="st0" d="M819.31,80.96c16.55,0,29.97,13.42,29.97,29.97c0,9.98-4.88,18.81-12.38,24.26c-0.55,1.44-1.19,2.84-1.93,4.17
		c10.01-5.53,16.79-16.18,16.79-28.43c0-17.93-14.53-32.46-32.46-32.46c-12.24,0-22.9,6.78-28.43,16.79
		c1.34-0.74,2.73-1.38,4.17-1.93C800.5,85.84,809.33,80.96,819.31,80.96z"/>
	<path class="st0" d="M833.4,137.38c-0.68,1.32-1.44,2.59-2.3,3.79c1.34-0.52,2.63-1.13,3.88-1.81c0.74-1.34,1.38-2.73,1.93-4.17
		C835.79,136,834.62,136.73,833.4,137.38z"/>
	<path class="st0" d="M792.85,96.84c0.65-1.22,1.39-2.39,2.2-3.51c-1.44,0.55-2.84,1.19-4.17,1.93c-0.69,1.24-1.29,2.54-1.81,3.88
		C790.26,98.28,791.53,97.51,792.85,96.84z"/>
	<path class="st0" d="M819.31,140.9c-16.55,0-29.97-13.42-29.97-29.97c0-5.09,1.27-9.89,3.52-14.09c-1.32,0.68-2.59,1.44-3.79,2.3
		c-1.43,3.66-2.22,7.63-2.22,11.79c0,17.93,14.53,32.46,32.46,32.46c4.16,0,8.13-0.79,11.79-2.22c0.86-1.2,1.63-2.46,2.3-3.79
		C829.2,139.63,824.4,140.9,819.31,140.9z"/>
	<path class="st2" d="M839,123.69c0,4.05-0.75,7.92-2.1,11.5c7.5-5.45,12.38-14.28,12.38-24.26c0-16.55-13.42-29.97-29.97-29.97
		c-9.98,0-18.81,4.88-24.26,12.38c3.57-1.35,7.45-2.1,11.5-2.1C824.47,91.23,839,105.76,839,123.69z"/>
	<path class="st2" d="M836.69,123.69c0,4.93-1.19,9.58-3.29,13.69c1.22-0.65,2.39-1.39,3.51-2.2c1.35-3.57,2.1-7.45,2.1-11.5
		c0-17.93-14.53-32.46-32.46-32.46c-4.05,0-7.92,0.75-11.5,2.1c-0.81,1.11-1.55,2.28-2.2,3.51c4.11-2.1,8.76-3.29,13.7-3.29
		C823.19,93.55,836.69,107.04,836.69,123.69z"/>
	<path class="st2" d="M819.31,140.9c5.09,0,9.89-1.27,14.09-3.52c2.1-4.11,3.29-8.76,3.29-13.69c0-16.65-13.5-30.14-30.14-30.14
		c-4.93,0-9.58,1.19-13.7,3.29c-2.24,4.2-3.52,9-3.52,14.09C789.33,127.48,802.75,140.9,819.31,140.9z"/>
	<path class="st0" d="M853.93,179.52l9.01-3c1.2-0.4,1.2-2.09,0-2.49l-9.01-3c-0.39-0.13-0.7-0.44-0.83-0.83l-3-9.01
		c-0.4-1.2-2.09-1.2-2.49,0l-3,9.01c-0.13,0.39-0.44,0.7-0.83,0.83l-9.01,3c-1.2,0.4-1.2,2.09,0,2.49l9.01,3
		c0.39,0.13,0.7,0.44,0.83,0.83l3,9.01c0.4,1.2,2.09,1.2,2.49,0l3-9.01C853.23,179.96,853.53,179.65,853.93,179.52z"/>
	<path class="st0" d="M735.56,84.6l9.16,3.05c0.4,0.13,0.71,0.45,0.85,0.85l3.05,9.15c0.41,1.22,2.13,1.22,2.53,0l3.05-9.15
		c0.13-0.4,0.45-0.71,0.84-0.84l9.16-3.05c1.22-0.41,1.22-2.13,0-2.53l-9.16-3.05c-0.4-0.13-0.71-0.45-0.85-0.84l-3.05-9.15
		c-0.41-1.22-2.13-1.22-2.53,0l-3.05,9.15c-0.13,0.4-0.45,0.71-0.84,0.84l-9.16,3.05C734.34,82.47,734.35,84.19,735.56,84.6z"/>
	<path class="st0" d="M874.85,216.89l-7.04-2.35c-0.31-0.1-0.55-0.34-0.65-0.65l-2.35-7.04c-0.31-0.94-1.64-0.94-1.95,0l-2.35,7.04
		c-0.1,0.31-0.34,0.55-0.65,0.65l-7.05,2.34c-0.94,0.31-0.94,1.64,0,1.95l7.04,2.35c0.31,0.1,0.55,0.34,0.65,0.65l2.35,7.04
		c0.31,0.94,1.64,0.94,1.95,0l2.34-7.04c0.1-0.31,0.34-0.55,0.65-0.65l7.05-2.34C875.79,218.52,875.79,217.2,874.85,216.89z"/>
	<path class="st0" d="M686.14,80.49l7.05,2.35c0.31,0.1,0.55,0.34,0.65,0.65l2.35,7.04c0.31,0.94,1.64,0.94,1.95,0l2.35-7.04
		c0.1-0.31,0.34-0.55,0.65-0.65l7.05-2.34c0.94-0.31,0.94-1.64,0-1.95l-7.05-2.35c-0.31-0.1-0.55-0.34-0.65-0.65l-2.35-7.04
		c-0.31-0.94-1.64-0.94-1.95,0l-2.35,7.04c-0.1,0.31-0.34,0.55-0.65,0.65l-7.05,2.34C685.2,78.85,685.2,80.18,686.14,80.49z"/>
	<path class="st3" d="M503.16,369.18c-1.34-0.6-2.37-1.88-3.75-3.71c-2.08-2.75-4.66-6.18-9.84-6.18c-5.17,0-7.76,3.43-9.84,6.18
		c-1.99,2.64-3.24,4.13-5.72,4.13c-2.48,0-3.73-1.49-5.72-4.13c-2.08-2.75-4.66-6.18-9.84-6.18c-5.17,0-7.76,3.43-9.84,6.18
		c-1.99,2.64-3.24,4.13-5.72,4.13c-2.48,0-3.73-1.49-5.72-4.13c-1.55-2.06-3.38-4.49-6.37-5.59c-1.68-0.62-3.47,0.64-3.47,2.43v0.01
		c0,1.08,0.69,2.03,1.7,2.41c1.47,0.55,2.54,1.88,4.02,3.84c2.08,2.75,4.66,6.18,9.83,6.18c5.17,0,7.76-3.43,9.84-6.18
		c1.99-2.64,3.24-4.13,5.72-4.13s3.73,1.49,5.72,4.13c2.08,2.75,4.66,6.18,9.84,6.18c5.17,0,7.76-3.43,9.84-6.18
		c1.99-2.64,3.24-4.13,5.72-4.13c2.48,0,3.73,1.49,5.72,4.13c1.44,1.9,3.13,4.11,5.74,5.3c1.67,0.75,3.55-0.57,3.55-2.39
		C504.58,370.5,504.04,369.58,503.16,369.18z"/>
	<path class="st0" d="M273.46,290.39c-12.24,0-22.9,6.78-28.43,16.79c1.59-0.88,3.27-1.62,5.01-2.23
		c5.39-7.04,13.87-11.58,23.42-11.58c16.28,0,29.48,13.2,29.48,29.48c0,9.55-4.54,18.03-11.58,23.42c-0.61,1.74-1.35,3.42-2.23,5.01
		c10.01-5.53,16.79-16.18,16.79-28.43C305.91,304.92,291.38,290.39,273.46,290.39z"/>
	<path class="st4" d="M293.15,335.61c0,3.74-0.64,7.32-1.8,10.66c7.04-5.39,11.58-13.87,11.58-23.42c0-16.28-13.2-29.48-29.48-29.48
		c-9.55,0-18.03,4.54-23.42,11.58c3.34-1.16,6.93-1.8,10.66-1.8C278.62,303.15,293.15,317.68,293.15,335.61z"/>
	<path class="st0" d="M260.69,366.13c-16.86,0-30.52-13.67-30.52-30.52c0-10.47,5.27-19.7,13.3-25.2c0.46-1.11,0.98-2.19,1.56-3.23
		c-10.01,5.53-16.79,16.19-16.79,28.43c0,17.93,14.53,32.46,32.46,32.46c12.24,0,22.9-6.78,28.43-16.79
		c-1.04,0.58-2.12,1.1-3.23,1.56C280.39,360.86,271.16,366.13,260.69,366.13z"/>
	<path class="st0" d="M248.1,307.8c0.59-0.99,1.24-1.94,1.93-2.86c-1.74,0.61-3.42,1.35-5.01,2.23c-0.58,1.04-1.1,2.12-1.56,3.23
		C244.93,309.41,246.48,308.54,248.1,307.8z"/>
	<path class="st0" d="M288.5,348.2c-0.74,1.62-1.61,3.17-2.61,4.63c1.11-0.46,2.19-0.98,3.23-1.56c0.88-1.59,1.62-3.27,2.23-5.01
		C290.44,346.96,289.49,347.61,288.5,348.2z"/>
	<path class="st0" d="M260.69,305.08c16.86,0,30.52,13.67,30.52,30.52c0,4.49-0.98,8.75-2.72,12.59c0.99-0.59,1.94-1.24,2.86-1.93
		c1.16-3.34,1.8-6.93,1.8-10.66c0-17.93-14.53-32.46-32.46-32.46c-3.74,0-7.32,0.64-10.66,1.8c-0.7,0.91-1.34,1.87-1.93,2.86
		C251.94,306.06,256.2,305.08,260.69,305.08z"/>
	<path class="st2" d="M241,322.84c0-4.41,0.88-8.6,2.47-12.44c-8.03,5.5-13.3,14.73-13.3,25.2c0,16.86,13.67,30.52,30.52,30.52
		c10.47,0,19.7-5.27,25.2-13.3c-3.83,1.59-8.03,2.47-12.44,2.47C255.53,355.3,241,340.77,241,322.84z"/>
	<path class="st2" d="M243.97,322.84c0-5.5,1.51-10.64,4.13-15.04c-1.62,0.74-3.17,1.61-4.63,2.61c-1.59,3.83-2.47,8.03-2.47,12.44
		c0,17.93,14.53,32.46,32.46,32.46c4.41,0,8.6-0.88,12.44-2.47c1-1.46,1.87-3.01,2.61-4.63c-4.4,2.62-9.55,4.13-15.04,4.13
		C257.17,352.33,243.97,339.13,243.97,322.84z"/>
	<path class="st2" d="M260.69,305.08c-4.49,0-8.75,0.98-12.59,2.72c-2.62,4.4-4.13,9.55-4.13,15.04c0,16.28,13.2,29.48,29.48,29.48
		c5.5,0,10.64-1.51,15.04-4.13c1.74-3.84,2.72-8.1,2.72-12.59C291.22,318.75,277.55,305.08,260.69,305.08z"/>
	<path class="st0" d="M232.4,285.34l3-9.01c0.13-0.39,0.44-0.7,0.83-0.83l9.01-3c1.2-0.4,1.2-2.09,0-2.49l-9.01-3
		c-0.39-0.13-0.7-0.44-0.83-0.83l-3-9.01c-0.4-1.2-2.09-1.2-2.49,0l-3,9.01c-0.13,0.39-0.44,0.7-0.83,0.83l-9.01,3
		c-1.2,0.4-1.2,2.09,0,2.49l9.01,3c0.39,0.13,0.7,0.44,0.83,0.83l3,9.01C230.31,286.54,232.01,286.54,232.4,285.34z"/>
	<path class="st0" d="M344.44,361.94l-9.16-3.05c-0.4-0.13-0.71-0.45-0.85-0.84l-3.05-9.15c-0.41-1.22-2.13-1.22-2.53,0l-3.05,9.15
		c-0.13,0.4-0.45,0.71-0.84,0.84l-9.16,3.05c-1.22,0.41-1.22,2.13,0,2.53l9.16,3.05c0.4,0.13,0.71,0.45,0.85,0.85l3.05,9.15
		c0.41,1.22,2.13,1.22,2.53,0l3.05-9.15c0.13-0.4,0.45-0.71,0.84-0.84l9.16-3.05C345.65,364.07,345.65,362.34,344.44,361.94z"/>
	<path class="st0" d="M217.14,239.69l2.34-7.04c0.1-0.31,0.34-0.55,0.65-0.65l7.05-2.34c0.94-0.31,0.94-1.64,0-1.95l-7.04-2.35
		c-0.31-0.1-0.55-0.34-0.65-0.65l-2.35-7.04c-0.31-0.94-1.64-0.94-1.95,0l-2.35,7.04c-0.1,0.31-0.34,0.55-0.65,0.65l-7.05,2.34
		c-0.94,0.31-0.94,1.64,0,1.95l7.04,2.35c0.31,0.1,0.55,0.34,0.65,0.65l2.35,7.04C215.5,240.62,216.83,240.62,217.14,239.69z"/>
	<path class="st0" d="M393.86,366.04l-7.05-2.35c-0.31-0.1-0.55-0.34-0.65-0.65l-2.35-7.04c-0.31-0.94-1.64-0.94-1.95,0l-2.35,7.04
		c-0.1,0.31-0.34,0.55-0.65,0.65l-7.05,2.34c-0.94,0.31-0.94,1.64,0,1.95l7.05,2.35c0.31,0.1,0.55,0.34,0.65,0.65l2.35,7.04
		c0.31,0.94,1.64,0.94,1.95,0l2.35-7.04c0.1-0.31,0.34-0.55,0.65-0.65l7.05-2.34C394.8,367.68,394.8,366.36,393.86,366.04z"/>
</g>
<text id="text_x5F_layer" transform="matrix(1 0 0 1 296.686 237.1016)" class="st4 st5 st6">GIÀY XINH CHO NÀNG</text>
</svg>
