<?xml version="1.0" encoding="utf-8"?>
<!-- Generator: Adobe Illustrator 26.5.0, SVG Export Plug-In . SVG Version: 6.00 Build 0)  -->
<svg version="1.1" id="sticker_x5F_beauty_x5F_03" xmlns="http://www.w3.org/2000/svg" xmlns:xlink="http://www.w3.org/1999/xlink"
	 x="0px" y="0px" width="1080px" height="459.38px" viewBox="0 0 1080 459.38" style="enable-background:new 0 0 1080 459.38;"
	 xml:space="preserve">
<style type="text/css">
	.st0{fill:#29296D;}
	.st1{fill:#F86EB5;}
	.st2{fill:#FFFFFF;}
	.st3{fill:#394BB2;}
	.st4{fill:#F5B332;}
	.st5{fill:none;}
	.st6{font-family:'Montserrat-Bold';}
	.st7{font-size:44.3988px;}
</style>
<g id="sticker_x5F_group">
	<polygon class="st0" points="839.43,175.83 839.43,251.78 845.66,251.78 845.66,170.38 809.69,170.38 809.69,175.83 	"/>
	<polygon class="st0" points="254.53,299.38 254.53,268.86 248.3,268.86 248.3,304.84 794.47,304.84 794.47,299.38 	"/>
	<rect x="809.69" y="175.83" class="st1" width="29.75" height="75.94"/>
	<rect x="254.53" y="268.86" class="st1" width="539.94" height="30.52"/>
	<polygon class="st2" points="217.14,265.27 217.14,137.99 803.98,137.99 803.98,170.38 809.69,170.38 809.69,134.4 212.32,134.4 
		212.32,268.86 248.3,268.86 248.3,265.27 	"/>
	<rect x="803.98" y="170.38" class="st2" width="5.71" height="5.46"/>
	<rect x="248.3" y="265.27" class="st2" width="6.23" height="3.59"/>
	<rect x="254.53" y="265.27" class="st2" width="539.94" height="3.59"/>
	<rect x="803.98" y="175.83" class="st2" width="5.71" height="75.94"/>
	<polygon class="st3" points="803.98,170.38 803.98,137.99 217.14,137.99 217.14,265.27 248.3,265.27 248.3,170.38 	"/>
	<polygon class="st3" points="803.98,175.83 803.98,170.38 248.3,170.38 248.3,265.27 254.53,265.27 254.53,175.83 	"/>
	<polygon class="st3" points="794.47,251.78 803.98,251.78 803.98,175.83 254.53,175.83 254.53,265.27 794.47,265.27 	"/>
	<polygon class="st0" points="859.35,260.11 859.35,316.65 802.8,316.65 802.8,324.98 867.68,324.98 867.68,260.11 	"/>
	<polygon class="st0" points="796.38,314.74 796.38,304.84 794.47,304.84 794.47,316.65 802.8,316.65 802.8,314.74 	"/>
	<polygon class="st0" points="857.44,253.68 857.44,260.11 859.35,260.11 859.35,251.78 845.66,251.78 845.66,253.68 	"/>
	<rect x="794.47" y="299.38" class="st0" width="1.91" height="5.46"/>
	<rect x="839.43" y="251.78" class="st0" width="6.23" height="1.91"/>
	<rect x="794.47" y="268.86" class="st0" width="1.91" height="30.52"/>
	<rect x="809.69" y="251.78" class="st0" width="29.75" height="1.91"/>
	<rect x="803.98" y="251.78" class="st0" width="5.71" height="1.91"/>
	<rect x="794.47" y="265.27" class="st0" width="1.91" height="3.59"/>
	<polygon class="st0" points="796.38,253.68 803.98,253.68 803.98,251.78 794.47,251.78 794.47,265.27 796.38,265.27 	"/>
	<polygon class="st0" points="859.35,260.11 857.44,260.11 857.44,314.74 802.8,314.74 802.8,316.65 859.35,316.65 	"/>
	<rect x="796.38" y="304.84" class="st4" width="6.42" height="9.91"/>
	<rect x="845.66" y="253.68" class="st4" width="11.78" height="6.42"/>
	<rect x="796.38" y="299.38" class="st4" width="6.42" height="5.46"/>
	<rect x="839.43" y="253.68" class="st4" width="6.23" height="6.42"/>
	<rect x="809.69" y="253.68" class="st4" width="29.75" height="6.42"/>
	<rect x="796.38" y="268.86" class="st4" width="6.42" height="30.52"/>
	<rect x="796.38" y="265.27" class="st4" width="6.42" height="3.59"/>
	<rect x="803.98" y="253.68" class="st4" width="5.71" height="6.42"/>
	<polygon class="st4" points="796.38,253.68 796.38,265.27 802.8,265.27 802.8,260.11 803.98,260.11 803.98,253.68 	"/>
	<path class="st4" d="M845.66,270.53c2.54,3.71,4.03,8.2,4.03,13.04c0,4.84-1.49,9.33-4.03,13.04v8.24h-10.06
		c-2.77,1.17-5.81,1.82-9.01,1.82c-3.2,0-6.24-0.65-9.01-1.82H802.8v9.91h54.64v-54.64h-11.78V270.53z"/>
	<path class="st4" d="M839.43,264.36c2.45,1.64,4.56,3.74,6.23,6.17v-10.42h-6.23V264.36z"/>
	<path class="st4" d="M835.61,304.84h10.06v-8.24C843.18,300.22,839.7,303.1,835.61,304.84z"/>
	<path class="st4" d="M809.77,299.38h-6.97v5.46h14.78C814.61,303.57,811.95,301.7,809.77,299.38z"/>
	<path class="st4" d="M826.6,260.47c4.75,0,9.17,1.44,12.84,3.9v-4.26h-29.75v7.73C813.9,263.3,819.92,260.47,826.6,260.47z"/>
	<path class="st4" d="M803.5,283.56c0-5.59,1.98-10.71,5.28-14.7h-5.98v30.52h6.97C805.88,295.25,803.5,289.68,803.5,283.56z"/>
	<path class="st4" d="M809.69,267.84v-7.73h-5.71v5.16h-1.17v3.59h5.98C809.07,268.51,809.38,268.17,809.69,267.84z"/>
	<rect x="802.8" y="260.11" class="st4" width="1.17" height="5.16"/>
	<path class="st0" d="M849.69,283.56c0-4.84-1.49-9.33-4.03-13.04v26.07C848.2,292.89,849.69,288.4,849.69,283.56z"/>
	<path class="st0" d="M826.6,306.66c3.2,0,6.24-0.65,9.01-1.82h-18.02C820.35,306.01,823.4,306.66,826.6,306.66z"/>
	<path class="st0" d="M839.43,264.36v9.15c2.17,2.77,3.48,6.25,3.48,10.05c0,3.79-1.31,7.28-3.48,10.05v5.77h-8.89
		c-1.27,0.32-2.59,0.5-3.95,0.5c-1.36,0-2.68-0.19-3.95-0.5h-12.88c2.18,2.32,4.84,4.19,7.81,5.46h18.02
		c4.09-1.73,7.57-4.62,10.06-8.24v-26.07C844,268.1,841.88,266,839.43,264.36z"/>
	<path class="st0" d="M830.55,299.38h8.89v-5.77C837.23,296.43,834.12,298.49,830.55,299.38z"/>
	<path class="st0" d="M809.69,267.84v1.02h-0.9c-3.3,3.99-5.28,9.12-5.28,14.7c0,6.12,2.39,11.68,6.27,15.82h12.88
		c-7.1-1.77-12.37-8.17-12.37-15.82c0-9.01,7.31-16.32,16.32-16.32c5.22,0,9.85,2.46,12.84,6.27v-9.15
		c-3.67-2.46-8.09-3.9-12.84-3.9C819.92,260.47,813.9,263.3,809.69,267.84z"/>
	<path class="st0" d="M809.69,267.84c-0.31,0.33-0.61,0.67-0.9,1.02h0.9V267.84z"/>
	<path class="st2" d="M842.91,283.56c0-3.79-1.31-7.28-3.48-10.05v20.1C841.61,290.84,842.91,287.36,842.91,283.56z"/>
	<path class="st2" d="M826.6,299.88c1.36,0,2.68-0.19,3.95-0.5h-7.9C823.91,299.69,825.23,299.88,826.6,299.88z"/>
	<path class="st2" d="M826.6,267.25c-9.01,0-16.32,7.31-16.32,16.32c0,7.65,5.27,14.05,12.37,15.82h7.9
		c3.58-0.89,6.68-2.95,8.89-5.77v-20.1C836.45,269.7,831.81,267.25,826.6,267.25z M833.3,286.64l-6.46,8.46
		c-0.38,0.5-1.14,0.5-1.52,0l-6.46-8.46c-0.48-0.63-0.03-1.54,0.76-1.54l1.82,0c0.56,0,1-0.48,0.96-1.04l-0.85-9.89
		c-0.05-0.56,0.39-1.04,0.96-1.04l7.17,0c0.56,0,1,0.48,0.96,1.04l-0.85,9.89c-0.05,0.56,0.39,1.04,0.96,1.04l1.82,0
		C833.34,285.1,833.79,286.01,833.3,286.64z"/>
	<path class="st1" d="M832.54,285.1l-1.82,0c-0.56,0-1-0.48-0.96-1.04l0.85-9.89c0.05-0.56-0.39-1.04-0.96-1.04l-7.17,0
		c-0.56,0-1,0.48-0.96,1.04l0.85,9.89c0.05,0.56-0.39,1.04-0.96,1.04l-1.82,0c-0.79,0-1.24,0.91-0.76,1.54l6.46,8.46
		c0.38,0.5,1.14,0.5,1.52,0l6.46-8.46C833.79,286.01,833.34,285.1,832.54,285.1z"/>
</g>
<rect id="text_safe_area" x="232.81" y="158.9" class="st5" width="526.91" height="90.82"/>
<text id="text_x5F_layer" transform="matrix(1 0 0 1 239.0687 220.7861)" class="st2 st6 st7">GIÀY XINH CHO NÀNG</text>
</svg>
